Patient4_TMGait_0pt3_02_right_16_GRF.mot
version=1
nRows=65
nColumns=19
inDegrees=no
endheader
time	F1x	F1y	F1z	M1x	M1y	M1z	F2x	F2y	F2z	M2x	M2y	M2z	EC1x	EC1y	EC1z	EC2x	EC2y	EC2z
30.04	4.8832	822.4772	39.113	-307.7184	-34.871	773.936	2.6522	5.6207	-4.1599	2.4533	1.6168	7.0902	-0.0592	0.0182	-0.0073	-0.0462	0.0165	0.9585
30.0593	3.3012	843.3201	41.0101	-315.0733	-36.7689	792.6856	1.8604	4.0321	-2.7759	1.7599	1.0412	5.0896	-0.0592	0.0182	-0.0073	-0.0462	0.0165	0.9585
30.0786	1.9065	864.8329	43.052	-322.5355	-38.7553	811.8853	1.1682	2.7173	-1.5879	1.177	0.54474	3.43	-0.0592	0.0182	-0.0073	-0.0462	0.0165	0.9585
30.0979	0.88048	884.2747	45.0298	-329.1121	-40.5844	828.906	0.62639	1.7492	-0.67116	0.74079	0.1618	2.2005	-0.0592	0.0182	-0.0073	-0.0462	0.0165	0.9585
30.1171	0.35361	898.8772	46.7173	-333.8237	-41.9926	841.0823	0.2393	1.1144	-0.030272	0.44972	-0.10137	1.3827	-0.0592	0.0182	-0.0073	-0.0462	0.0165	0.9585
30.1364	0.40395	906.2606	47.9087	-335.8485	-42.7429	846.1273	-0.012671	0.74754	0.37036	0.2779	-0.25885	0.89906	-0.0592	0.0182	-0.0073	-0.0462	0.0165	0.9585
30.1557	1.0881	904.8529	48.4568	-334.6655	-42.6563	842.5342	-0.1569	0.55354	0.58468	0.18583	-0.33628	0.63508	-0.0592	0.0182	-0.0073	-0.0462	0.0165	0.9585
30.175	2.427	894.1606	48.311	-330.1363	-41.6557	829.8509	-0.21802	0.42137	0.66743	0.12798	-0.36127	0.46204	-0.0592	0.0182	-0.0073	-0.0462	0.0165	0.9585
30.1943	4.3666	874.8252	47.5514	-322.5118	-39.8165	808.7404	-0.21726	0.23446	0.66834	0.056547	-0.35882	0.25231	-0.0592	0.0182	-0.0073	-0.0462	0.0165	0.9585
30.2136	6.8015	848.5565	46.3781	-312.4078	-37.3513	780.9005	-0.1724	-0.12303	0.62795	-0.075966	-0.35054	-0.12008	-0.0592	0.0182	-0.0073	-0.0462	0.0165	0.9585
30.2329	9.6029	817.9094	45.0639	-300.7299	-34.5572	748.8273	-0.098422	-0.75669	0.57879	-0.31407	-0.35645	-0.77283	-0.0592	0.0182	-0.0073	-0.0462	0.0165	0.9585
30.2521	12.6378	785.9348	43.8921	-288.5602	-31.7522	715.4654	-0.0058055	-1.7519	0.54569	-0.6945	-0.39348	-1.801	-0.0592	0.0182	-0.0073	-0.0462	0.0165	0.9585
30.2714	15.8102	755.8308	43.0843	-277.042	-29.1881	683.8503	0.098315	-3.15	0.546	-1.2363	-0.47277	-3.2513	-0.0592	0.0182	-0.0073	-0.0462	0.0165	0.9585
30.2907	19.0581	730.5285	42.7605	-267.2336	-27.0114	656.7237	0.209	-4.9112	0.58905	-1.9263	-0.59922	-5.0803	-0.0592	0.0182	-0.0073	-0.0462	0.0165	0.9585
30.31	22.32	712.2364	42.9461	-259.9396	-25.2809	636.1235	0.31606	-6.8641	0.67332	-2.6982	-0.7635	-7.1099	-0.0592	0.0182	-0.0073	-0.0462	0.0165	0.9585
30.3293	25.5542	702.0697	43.6035	-255.575	-23.9885	623.0523	0.39956	-8.6459	0.78482	-3.407	-0.9387	-8.9619	-0.0592	0.0182	-0.0073	-0.0462	0.0165	0.9585
30.3486	28.7627	699.864	44.6618	-254.0952	-23.0818	617.3323	0.43047	-9.6312	0.89217	-3.8023	-1.0775	-9.9817	-0.0592	0.0182	-0.0073	-0.0462	0.0165	0.9585
30.3679	31.9437	704.1554	46.0354	-254.983	-22.4996	617.6244	0.36251	-8.8656	0.94003	-3.5022	-1.1003	-9.1737	-0.0592	0.0182	-0.0073	-0.0462	0.0165	0.9585
30.3871	35.0506	712.3543	47.6151	-257.3064	-22.1864	621.6233	0.12806	-5.0328	0.84773	-1.9812	-0.88947	-5.1733	-0.0592	0.0182	-0.0073	-0.0462	0.0165	0.9585
30.4064	37.9766	721.0934	49.2638	-259.8475	-22.0885	626.3874	-0.35532	3.5067	0.5121	1.4149	-0.29994	3.7171	-0.0592	0.0182	-0.0073	-0.0462	0.0165	0.9585
30.4257	40.5546	726.689	50.8235	-261.2706	-22.1533	628.7424	-1.1762	18.5681	-0.18945	7.4094	0.83429	19.3733	-0.0592	0.0182	-0.0073	-0.0462	0.0165	0.9585
30.445	42.5726	725.6255	52.1143	-260.3035	-22.3194	625.7017	-2.4119	41.8175	-1.3884	16.6648	2.6805	43.5168	-0.0592	0.0182	-0.0073	-0.0462	0.0165	0.9585
30.4643	43.79	715.028	52.9267	-255.9131	-22.5046	614.8637	-4.1613	74.2581	-3.1922	29.5798	5.3881	77.1863	-0.0592	0.0182	-0.0073	-0.0462	0.0165	0.9585
30.4836	43.9917	693.0587	53.0431	-247.4513	-22.6067	594.729	-6.6878	115.5679	-5.6265	46.0242	9.0786	120.0273	-0.0592	0.0182	-0.0073	-0.0462	0.0165	0.9585
30.5029	43.0824	659.2787	52.2742	-234.7858	-22.5015	564.9669	-10.2885	163.5753	-8.7028	65.1192	13.8666	169.7531	-0.0592	0.0182	-0.0073	-0.0462	0.0165	0.9585
30.5221	41.1738	614.9669	50.5272	-218.4072	-22.0642	526.6416	-14.8395	214.7074	-12.6016	85.4015	19.8653	222.6064	-0.0592	0.0182	-0.0073	-0.0462	0.0165	0.9585
30.5414	38.5916	563.0816	47.8823	-199.407	-21.2264	482.1602	-19.8218	265.9196	-17.1921	105.6317	26.7088	275.3361	-0.0592	0.0182	-0.0073	-0.0462	0.0165	0.9585
30.5607	35.7786	507.5085	44.567	-179.2029	-19.9874	434.6689	-24.675	315.8831	-22.0243	125.2855	33.7054	326.4708	-0.0592	0.0182	-0.0073	-0.0462	0.0165	0.9585
30.58	33.0968	451.8933	40.8122	-159.1174	-18.3731	387.1385	-28.9396	364.0731	-26.5622	144.1816	40.1253	375.3969	-0.0592	0.0182	-0.0073	-0.0462	0.0165	0.9585
30.5993	30.6754	398.801	36.7728	-140.0731	-16.4337	341.7024	-32.2563	409.9017	-30.3803	162.1133	45.3959	421.4471	-0.0592	0.0182	-0.0073	-0.0462	0.0165	0.9585
30.6186	28.4516	349.5831	32.5805	-122.5412	-14.2743	299.527	-34.3441	452.5276	-33.283	178.7573	49.2084	463.7221	-0.0592	0.0182	-0.0073	-0.0462	0.0165	0.9585
30.6379	26.2711	304.6596	28.3896	-106.6452	-12.0571	261.016	-35.0459	490.9988	-35.3147	193.7313	51.5459	501.2613	-0.0592	0.0182	-0.0073	-0.0462	0.0165	0.9585
30.6571	23.9587	263.9148	24.3533	-92.3117	-9.9546	226.1186	-34.3921	524.556	-36.6465	206.7282	52.5962	533.3543	-0.0592	0.0182	-0.0073	-0.0462	0.0165	0.9585
30.6764	21.3937	227.0531	20.5908	-79.4032	-8.0982	194.6116	-32.5828	553.0359	-37.4325	217.6904	52.6014	559.9332	-0.0592	0.0182	-0.0073	-0.0462	0.0165	0.9585
30.6957	18.5504	193.8221	17.1763	-67.7999	-6.5571	166.2824	-29.911	577.0134	-37.7538	226.8701	51.7742	581.7011	-0.0592	0.0182	-0.0073	-0.0462	0.0165	0.9585
30.715	15.4861	164.0955	14.1397	-57.4332	-5.3479	141.0026	-26.7205	597.5262	-37.662	234.7123	50.3229	599.8406	-0.0592	0.0182	-0.0073	-0.0462	0.0165	0.9585
30.7343	12.3092	137.862	11.4913	-48.282	-4.4584	118.7325	-23.3696	615.6733	-37.2352	241.6838	48.4862	615.5904	-0.0592	0.0182	-0.0073	-0.0462	0.0165	0.9585
30.7536	9.1377	115.1574	9.2473	-40.3485	-3.8749	99.468	-20.1755	632.2721	-36.5953	248.1272	46.5257	629.8813	-0.0592	0.0182	-0.0073	-0.0462	0.0165	0.9585
30.7729	6.0775	95.9475	7.4278	-33.6161	-3.5856	83.1476	-17.3601	647.6472	-35.8895	254.1732	44.6752	643.1045	-0.0592	0.0182	-0.0073	-0.0462	0.0165	0.9585
30.7921	3.2156	79.97	6.0298	-27.9955	-3.5602	69.5223	-15.0318	661.6584	-35.2627	259.756	43.1078	655.1306	-0.0592	0.0182	-0.0073	-0.0462	0.0165	0.9585
30.8114	0.6007	66.6763	5.0094	-23.3038	-3.7452	58.1187	-13.2111	673.9835	-34.8346	264.7269	41.9322	665.6067	-0.0592	0.0182	-0.0073	-0.0462	0.0165	0.9585
30.8307	-1.7329	55.3518	4.2895	-19.3004	-4.0631	48.3409	-11.8797	684.4379	-34.6975	268.9883	41.2178	674.2942	-0.0592	0.0182	-0.0073	-0.0462	0.0165	0.9585
30.85	-3.7107	45.3122	3.7652	-15.7529	-4.3978	39.6225	-10.9994	693.2194	-34.8851	272.6022	40.9772	681.3149	-0.0592	0.0182	-0.0073	-0.0462	0.0165	0.9585
30.8693	-5.2133	36.0753	3.3162	-12.4984	-4.6061	31.5731	-10.5168	701.0095	-35.3493	275.8343	41.1447	687.2605	-0.0592	0.0182	-0.0073	-0.0462	0.0165	0.9585
30.8886	-6.0857	27.4444	2.8461	-9.4716	-4.5554	24.0477	-10.3807	708.8642	-35.9893	279.1036	41.6092	693.1006	-0.0592	0.0182	-0.0073	-0.0462	0.0165	0.9585
30.9079	-6.174	19.4883	2.3038	-6.6959	-4.1559	17.1169	-10.5573	717.933	-36.6981	282.8598	42.2587	699.9181	-0.0592	0.0182	-0.0073	-0.0462	0.0165	0.9585
30.9271	-5.4565	12.4695	1.6998	-4.259	-3.417	11.0072	-11.0433	729.1747	-37.3857	287.465	43.0029	708.6336	-0.0592	0.0182	-0.0073	-0.0462	0.0165	0.9585
30.9464	-4.2162	6.7494	1.1054	-2.2805	-2.5016	6.0295	-11.8556	743.1545	-37.9759	293.1195	43.7684	719.8027	-0.0592	0.0182	-0.0073	-0.0462	0.0165	0.9585
30.9657	-2.8555	2.5306	0.59972	-0.82572	-1.6175	2.3622	-12.9685	759.9459	-38.4174	299.8281	44.4864	733.5103	-0.0592	0.0182	-0.0073	-0.0462	0.0165	0.9585
30.985	-1.6228	-0.27756	0.21482	0.13878	-0.87987	-0.075504	-14.2867	779.1417	-38.6915	307.4088	45.0962	749.3673	-0.0592	0.0182	-0.0073	-0.0462	0.0165	0.9585
31.0043	-0.63539	-1.9271	-0.045382	0.70072	-0.3317	-1.5058	-15.6757	799.836	-38.8083	315.4894	45.5481	766.4917	-0.0592	0.0182	-0.0073	-0.0462	0.0165	0.9585
31.0236	0.076272	-2.7251	-0.19407	0.96666	0.030511	-2.199	-16.9888	820.6497	-38.7872	323.5203	45.7969	783.547	-0.0592	0.0182	-0.0073	-0.0462	0.0165	0.9585
31.0429	0.53057	-2.9696	-0.25432	1.0407	0.23501	-2.4176	-18.066	839.9152	-38.6337	330.8509	45.7848	798.9172	-0.0592	0.0182	-0.0073	-0.0462	0.0165	0.9585
31.0621	0.76715	-2.9184	-0.25226	1.0146	0.32101	-2.3894	-18.7319	855.9304	-38.3339	336.8288	45.4333	810.9519	-0.0592	0.0182	-0.0073	-0.0462	0.0165	0.9585
31.0814	0.83286	-2.7817	-0.2113	0.96419	0.32481	-2.3014	-18.8068	867.1866	-37.8685	340.885	44.6556	818.1952	-0.0592	0.0182	-0.0073	-0.0462	0.0165	0.9585
31.1007	0.77513	-2.7227	-0.1515	0.94814	0.2752	-2.3003	-18.1358	872.5246	-37.2257	342.5886	43.3814	819.5497	-0.0592	0.0182	-0.0073	-0.0462	0.0165	0.9585
31.12	0.63907	-2.8546	-0.088112	1.006	0.19571	-2.4918	-16.6302	871.2663	-36.4048	341.6914	41.5778	814.4119	-0.0592	0.0182	-0.0073	-0.0462	0.0165	0.9585
31.1393	0.46714	-3.2421	-0.033101	1.1608	0.10912	-2.9375	-14.2777	863.3426	-35.4243	338.1763	39.2584	802.7879	-0.0592	0.0182	-0.0073	-0.0462	0.0165	0.9585
31.1586	0.30089	-3.9019	0.0021365	1.4168	0.040136	-3.6465	-11.1386	849.3708	-34.3304	332.2882	36.4888	785.359	-0.0592	0.0182	-0.0073	-0.0462	0.0165	0.9585
31.1779	0.18528	-4.7845	0.0046635	1.7543	0.019409	-4.5655	-7.3408	830.5981	-33.2001	324.512	33.3906	763.4113	-0.0592	0.0182	-0.0073	-0.0462	0.0165	0.9585
31.1971	0.17347	-5.7465	-0.03967	2.118	0.08341	-5.5584	-3.0746	808.7212	-32.1404	315.5066	30.1439	738.6518	-0.0592	0.0182	-0.0073	-0.0462	0.0165	0.9585
31.2164	0.33239	-6.5185	-0.14367	2.4049	0.27279	-6.3657	1.4213	785.6259	-31.2721	306.0064	26.9656	712.9449	-0.0592	0.0182	-0.0073	-0.0462	0.0165	0.9585
31.2357	0.74613	-6.6736	-0.31842	2.4517	0.63094	-6.5672	5.9025	763.1448	-30.6971	296.7312	24.0606	688.0682	-0.0592	0.0182	-0.0073	-0.0462	0.0165	0.9585
31.255	1.507	-5.6084	-0.56856	2.0262	1.199	-5.5587	10.1677	742.8731	-30.4693	288.3168	21.5759	665.5148	-0.0592	0.0182	-0.0073	-0.0462	0.0165	0.9585
31.2743	2.702	-2.5314	-0.88217	0.82426	1.9978	-2.5354	14.097	725.9833	-30.5781	281.2408	19.5725	646.3193	-0.0592	0.0182	-0.0073	-0.0462	0.0165	0.9585
